<?xml version="1.0" encoding="UTF-8" standalone="no"?>
<!DOCTYPE svg PUBLIC "-//W3C//DTD SVG 1.1//EN" "http://www.w3.org/Graphics/SVG/1.1/DTD/svg11.dtd">
<svg width="100%" height="100%" viewBox="0 0 128 128" version="1.1" xmlns="http://www.w3.org/2000/svg" xmlns:xlink="http://www.w3.org/1999/xlink" xml:space="preserve" xmlns:serif="http://www.serif.com/" style="fill-rule:evenodd;clip-rule:evenodd;stroke-linejoin:round;stroke-miterlimit:2;">
    <g transform="matrix(0.426667,0,0,0.426667,-0.426667,0)">
        <g transform="matrix(2.34375,0,0,2.34375,1,0)">
            <rect x="0" y="0" width="128" height="128" style="fill:rgb(0,40,29);"/>
        </g>
        <g transform="matrix(1.2,0,0,1.2,-30.17,-30)">
            <path d="M164.4,247.3C109.7,248 65,203.4 65.7,148.6C66.4,96.1 109.2,53.4 161.6,52.7C192,52.3 219.4,65.9 237.5,87.5C239.8,90.2 243.8,90.6 246.6,88.3L247,87.9C249.7,85.6 250.1,81.6 247.8,78.9C245.7,76.4 243.4,73.9 241.1,71.6C220.2,50.8 191.7,39.1 162.2,39.3C132.9,39.5 105.4,51 84.7,71.7C63.8,92.6 52.3,120.4 52.3,150C52.3,179.6 63.8,207.4 84.7,228.3C105.4,249 132.9,260.5 162.2,260.7C191.7,260.9 220.2,249.3 241.1,228.4L241.2,228.4C243.8,225.8 243.6,221.4 240.8,219L240.3,218.6C237.7,216.4 234,216.7 231.6,219C214.2,236.2 190.5,247 164.4,247.3" style="fill:rgb(150,255,51);fill-rule:nonzero;"/>
        </g>
        <g transform="matrix(1.2,0,0,1.2,-30.17,-30)">
            <path d="M143.4,136C135.2,126.3 132.9,116.3 134.4,108C135.5,102.3 138.6,98.1 141.1,95.6C147.1,89.7 141.3,83.7 134.8,86.1C124.4,89.9 116.7,95.7 109.7,102.7C97,115.5 90.8,131.3 90.8,149C90.8,166.7 97.8,183.5 110.5,196.2C123,208.7 139.5,218.5 156.5,212.6C166.5,209.2 173.4,200.7 173.7,190.3C173.9,181 169.3,166.7 143.4,136M150.3,201.7C147.4,202.8 144.5,203.3 140.7,202.5C132,200.8 124.5,195.1 118.1,188.6C107.4,177.9 101.6,163.9 101.6,149C101.6,134.1 107.5,120.1 118.1,109.4C120.1,107.4 122.3,105.6 124.5,103.9C124.4,104.3 124.2,104.5 124,105.8C123.5,108.3 123.3,110.2 123.3,112.4C123.3,121.9 127.1,131.9 134.7,142.3C139.8,149.2 152.6,164 159,176C164,185.5 160.2,197.7 150.3,201.7" style="fill:rgb(150,255,51);fill-rule:nonzero;"/>
        </g>
        <g transform="matrix(1.2,0,0,1.2,-30.17,-30)">
            <path d="M184,164C192.2,173.7 194.5,183.7 193,192C191.9,197.7 188.8,201.9 186.3,204.4C180.3,210.4 186.1,216.3 192.6,213.9C203,210.1 210.7,204.3 217.7,197.3C230.4,184.6 236.6,168.9 236.6,151.1C236.6,133.4 229.6,116.6 216.9,103.9C204.4,91.4 187.9,81.6 170.9,87.5C160.9,90.9 154,99.4 153.7,109.8C153.4,119 158.1,133.3 184,164M177.1,98.3C180,97.2 182.9,96.7 186.7,97.5C195.4,99.2 202.9,104.9 209.3,111.4C220,122.1 225.8,136.1 225.8,151C225.8,165.9 219.9,179.9 209.3,190.6C207.3,192.6 205.1,194.4 202.8,196.1C202.9,195.7 203.1,195.5 203.3,194.2C203.8,191.7 204,189.8 204,187.6C204,178.1 200.2,168.1 192.6,157.7C187.5,150.8 174.7,136 168.3,124C163.3,114.5 167.2,102.3 177.1,98.3" style="fill:rgb(150,255,51);fill-rule:nonzero;"/>
        </g>
    </g>
</svg>
